# xmcd CD database file
# Copyright (C) 1993-1998 Ti Kan
#
# Track frame offsets:
#	150
#	15607
#	31250
#	47727
#	59245
#	75457
#	91922
#	105202
#	118837
#	135190
#	151937
#	168495
#
# Disc length: 2495 seconds
#
# Revision: 2
# Processed by: cddbd v1.4b41PL1 Copyright (c) Steve Scherf et al.
# Submitted via: NotifyCDPlayer(CDDB) 1.51.2
#
DISCID=8a09bd0c
DTITLE=The Great Divide - Break In The Storm
DYEAR=1900
DGENRE=
TTITLE0=Never Could
TTITLE1=Billy Covington
TTITLE2=But I Do
TTITLE3=Heart Of Stone
TTITLE4=Break In The Storm
TTITLE5=Dodgers Were In Brooklyn
TTITLE6=Pour Me A Vacation
TTITLE7=Couple Of Days
TTITLE8=Used To Be (Duet with Jimmy LaFave)
TTITLE9=Out Of Love
TTITLE10=Round That Bend
TTITLE11=I Want To Come Home
EXTD=
EXTT0=
EXTT1=
EXTT2=
EXTT3=
EXTT4=
EXTT5=
EXTT6=
EXTT7=
EXTT8=
EXTT9=
EXTT10=
EXTT11=
PLAYORDER=
